<?xml version="1.0" standalone="no"?>
<!DOCTYPE svg PUBLIC "-//W3C//DTD SVG 20010904//EN"
 "http://www.w3.org/TR/2001/REC-SVG-20010904/DTD/svg10.dtd">
<svg version="1.0" xmlns="http://www.w3.org/2000/svg"
 width="276.000000pt" height="130.000000pt" viewBox="0 0 276.000000 130.000000"
 preserveAspectRatio="xMidYMid meet">

<g transform="translate(0.000000,130.000000) scale(0.100000,-0.100000)"
fill="#000000" stroke="none">
<path d="M1205 1209 c-386 -36 -695 -145 -866 -306 -229 -216 -145 -464 215
-638 247 -119 512 -170 886 -169 231 0 339 9 515 46 425 87 715 296 715 513 0
223 -307 436 -750 520 -216 41 -498 54 -715 34z m496 -54 c378 -40 653 -140
810 -295 104 -102 130 -179 94 -280 -68 -194 -371 -348 -815 -417 -163 -25
-538 -24 -705 1 -339 51 -579 148 -721 290 -100 100 -123 175 -87 282 12 37
35 68 93 125 64 64 94 84 190 132 63 30 153 67 200 81 282 85 627 115 941 81z"/>
<path d="M788 1000 c-46 -14 -85 -48 -107 -93 -27 -55 -27 -99 0 -155 25 -50
69 -86 182 -144 88 -46 127 -86 127 -129 0 -41 -15 -66 -50 -84 -91 -47 -220
30 -253 152 -6 24 -15 43 -19 43 -4 0 -8 -54 -8 -120 0 -73 4 -120 10 -120 6
0 10 5 10 10 0 6 11 15 24 21 19 9 35 7 80 -10 74 -28 138 -27 201 3 58 27 78
47 100 99 47 113 -6 198 -177 287 -149 78 -181 129 -119 191 70 69 207 6 242
-111 7 -22 16 -40 21 -40 4 0 8 47 8 105 0 98 -10 132 -25 85 -3 -11 -12 -20
-19 -20 -6 0 -37 9 -69 20 -59 21 -112 24 -159 10z"/>
<path d="M1318 1000 c-46 -14 -85 -48 -107 -93 -27 -55 -27 -99 0 -155 25 -50
69 -86 182 -144 88 -46 127 -86 127 -129 0 -41 -15 -66 -50 -84 -91 -47 -220
30 -253 152 -6 24 -15 43 -19 43 -4 0 -8 -54 -8 -120 0 -73 4 -120 10 -120 6
0 10 5 10 10 0 6 11 15 24 21 19 9 35 7 80 -10 78 -29 140 -27 205 5 62 31
101 84 108 148 11 95 -40 159 -188 236 -143 74 -177 122 -129 183 63 80 215
17 251 -102 7 -23 16 -41 21 -41 4 0 8 47 8 105 0 98 -10 132 -25 85 -3 -11
-13 -20 -20 -20 -8 0 -37 9 -65 20 -52 21 -114 24 -162 10z"/>
<path d="M1848 1000 c-46 -14 -85 -48 -107 -93 -27 -55 -27 -99 0 -155 25 -50
69 -86 182 -144 88 -46 127 -86 127 -129 0 -41 -15 -66 -50 -84 -91 -47 -220
30 -253 152 -6 24 -15 43 -19 43 -4 0 -8 -54 -8 -120 0 -66 3 -120 8 -120 4 0
13 9 20 20 15 25 34 25 100 0 70 -27 135 -25 197 4 58 27 78 47 100 99 47 113
-6 198 -177 287 -149 78 -181 129 -119 191 70 69 207 6 242 -111 7 -22 16 -40
21 -40 4 0 8 47 8 105 0 98 -10 132 -25 85 -3 -11 -13 -20 -20 -20 -8 0 -37 9
-65 20 -52 21 -114 24 -162 10z"/>
</g>
</svg>
